Coordinates
version=1
nRows=22
nColumns=24
inDegrees=yes

Units are S.I. units (second, meters, Newtons, ...)
Angles are in degrees.

endheader
time	pelvis_tilt	pelvis_list	pelvis_rotation	pelvis_tx	pelvis_ty	pelvis_tz	hip_flexion_r	hip_adduction_r	hip_rotation_r	knee_angle_r	ankle_angle_r	subtalar_angle_r	mtp_angle_r	hip_flexion_l	hip_adduction_l	hip_rotation_l	knee_angle_l	ankle_angle_l	subtalar_angle_l	mtp_angle_l	lumbar_extension	lumbar_bending	lumbar_rotation
      1.49766667	     -4.81860053	      5.61202858	     -2.90434477	      0.39070325	      0.89403780	      0.34174510	     17.38499873	     -8.30152440	     -6.42118613	    -69.51285908	      5.89467397	      3.86136837	      7.93985913	     19.33625895	      8.54274744	     -6.18138399	    -23.60253497	     10.04806974	     -6.63049782	      3.22704337	      1.28750588	     -9.40593100	      5.66608387
      1.50183333	     -4.78139111	      5.50246055	     -2.75015163	      0.39551692	      0.89523801	      0.34156473	     18.01224955	     -8.13391348	     -6.48451094	    -69.19997612	      6.47841978	      3.74589808	      7.89668259	     18.69721564	      8.51131817	     -6.00365378	    -23.11817998	     10.07439343	     -6.48581501	      3.25201008	      1.19629074	     -9.30879720	      5.49518034
      1.50600000	     -4.68799245	      5.39691857	     -2.59281576	      0.40039169	      0.89653227	      0.34133911	     18.55096856	     -7.99336363	     -6.56931260	    -68.81245205	      6.99780571	      3.72980386	      7.80361311	     17.96486103	      8.49670702	     -5.79731408	    -22.56904411	     10.10733355	     -6.38753032	      3.29493368	      1.06367572	     -9.20501249	      5.15261965
      1.51016667	     -4.61151657	      5.28049389	     -2.41977824	      0.40523019	      0.89776648	      0.34110552	     19.09581158	     -7.83990824	     -6.66533410	    -68.37616437	      7.49962547	      3.64812543	      7.71013589	     17.26202234	      8.46736225	     -5.57251781	    -22.03910304	     10.12224572	     -6.28638132	      3.33585794	      0.93652785	     -9.09077029	      4.87436977
      1.51433333	     -4.52521815	      5.16031498	     -2.23354199	      0.41005910	      0.89898754	      0.34085071	     19.61296683	     -7.68987304	     -6.77574208	    -67.88513504	      7.96775875	      3.56445022	      7.61014912	     16.54908288	      8.43484526	     -5.33162402	    -21.50696746	     10.13292951	     -6.19513579	      3.37696484	      0.79682451	     -8.97517813	      4.58110633
      1.51850000	     -4.43562330	      5.03242913	     -2.03817312	      0.41488465	      0.90018921	      0.34057229	     20.10848693	     -7.53842031	     -6.89864747	    -67.33704533	      8.39754539	      3.46090013	      7.51341434	     15.83237905	      8.39346705	     -5.07820982	    -20.97218063	     10.14210549	     -6.10986932	      3.41480510	      0.65367574	     -8.84310421	      4.29235864
      1.52266667	     -4.33554698	      4.90072528	     -1.83280684	      0.41970444	      0.90137530	      0.34027912	     20.57564042	     -7.38920740	     -7.03262245	    -66.73587205	      8.79613792	      3.34379508	      7.41187837	     15.10312150	      8.34709433	     -4.80919831	    -20.43261499	     10.14490919	     -6.03351100	      3.45099603	      0.49657117	     -8.70798255	      3.98719053
      1.52683333	     -4.25048215	      4.76008394	     -1.61273810	      0.42449113	      0.90249829	      0.33998600	     21.04386091	     -7.23119719	     -7.17661643	    -66.08450854	      9.17510782	      3.19704128	      7.33448071	     14.40459515	      8.28492685	     -4.52417407	    -19.91770017	     10.13324540	     -5.93621742	      3.47770325	      0.34182483	     -8.57645692	      3.73223071
      1.53100000	     -4.12775857	      4.63198526	     -1.39747146	      0.42933324	      0.90365320	      0.33964392	     21.45169998	     -7.10624184	     -7.33140150	    -65.37838480	      9.47597775	      3.04886551	      7.19994452	     13.63729845	      8.24202382	     -4.23107672	    -19.34467598	     10.13860416	     -5.92441648	      3.51707093	      0.18288544	     -8.42472301	      3.33397186
      1.53516667	     -4.02770516	      4.47813986	     -1.15584492	      0.43410864	      0.90473340	      0.33931551	     21.86430343	     -6.94685013	     -7.49759148	    -64.61705117	      9.77848526	      2.86540284	      7.10280269	     12.92462956	      8.16106340	     -3.91713418	    -18.82708608	     10.12522871	     -5.84788143	      3.54464223	      0.00800892	     -8.27791661	      3.05876633
      1.53933333	     -3.91871926	      4.33222811	     -0.91531741	      0.43890704	      0.90578285	      0.33897170	     22.25199626	     -6.80729337	     -7.67335498	    -63.81017577	     10.03539842	      2.65714455	      7.01152125	     12.19748044	      8.08330400	     -3.61428997	    -18.29752532	     10.11497655	     -5.78478168	      3.56866139	     -0.15678465	     -8.12228319	      2.76139842
      1.54350000	     -3.81330546	      4.21719899	     -0.67602870	      0.44370168	      0.90676977	      0.33858861	     22.64090735	     -6.71298057	     -7.84224613	    -62.98007491	     10.25440961	      2.44634376	      6.75620932	     11.45502529	      8.04718176	     -3.25740481	    -17.71641958	     10.07058803	     -5.85721129	      3.62811182	     -0.30707151	     -7.98683083	      2.24944627
      1.54766667	     -3.69961083	      4.04902125	     -0.42310454	      0.44848851	      0.90774883	      0.33823989	     22.98281302	     -6.55406711	     -8.03170510	    -62.06279938	     10.42063055	      2.19206874	      6.66445233	     10.73852363	      7.92990436	     -2.95921700	    -17.21595191	     10.09062873	     -5.76003307	      3.65045941	     -0.47979354	     -7.80327802	      2.05989847
      1.55183333	     -3.59118322	      3.93159659	     -0.17991153	      0.45326391	      0.90864625	      0.33786481	     23.33771802	     -6.45862242	     -8.19860979	    -61.14077677	     10.55907990	      1.91140563	      6.41367591	     10.00245696	      7.87446032	     -2.60913094	    -16.64649275	     10.05465095	     -5.80718257	      3.70489991	     -0.64192323	     -7.66732107	      1.56973639
      1.55600000	     -3.47196530	      3.77582286	      0.06365054	      0.45805247	      0.90953333	      0.33751308	     23.64813729	     -6.31743812	     -8.37546252	    -60.14136109	     10.63101263	      1.60786588	      6.28006653	      9.27722595	      7.75903085	     -2.31689400	    -16.13080108	     10.09263298	     -5.74914214	      3.73484558	     -0.80811485	     -7.47925725	      1.32755998
      1.56016667	     -3.36707881	      3.62522174	      0.33233913	      0.46281254	      0.91034904	      0.33714608	     23.95454823	     -6.19118422	     -8.57282905	    -59.10037383	     10.70038052	      1.28387958	      6.17460986	      8.58232813	      7.64296356	     -2.00569989	    -15.63512825	     10.07472215	     -5.68346420	      3.75713775	     -0.96647528	     -7.31853544	      1.05145091
      1.56433333	     -3.26631946	      3.48721451	      0.58892610	      0.46758615	      0.91109876	      0.33678024	     24.25691234	     -6.07920411	     -8.75475732	    -58.02863904	     10.71959815	      0.93642149	      6.06757159	      7.88425975	      7.53567732	     -1.69840911	    -15.12119202	     10.07481217	     -5.64068689	      3.77934889	     -1.11788484	     -7.15258009	      0.73098396
      1.56850000	     -3.17258042	      3.38494295	      0.83686289	      0.47233113	      0.91176756	      0.33640853	     24.56892265	     -6.00611665	     -8.90917704	    -56.94647830	     10.71995221	      0.57555519	      5.79220340	      7.17942687	      7.47026010	     -1.33552113	    -14.56624317	     10.03745299	     -5.72325642	      3.83711345	     -1.26050887	     -7.03409842	      0.21363143
      1.57266667	     -3.07386939	      3.24233276	      1.09413691	      0.47709964	      0.91241435	      0.33605912	     24.83620199	     -5.89199489	     -9.09705789	    -55.78494517	     10.67423001	      0.22166854	      5.68811772	      6.50676455	      7.33791705	     -1.07239638	    -14.09575842	     10.06338149	     -5.63632319	      3.86031635	     -1.39438489	     -6.86336554	      0.02608651
      1.57683333	     -2.96971113	      3.13663702	      1.32245225	      0.48186327	      0.91299367	      0.33572519	     25.10305093	     -5.80628603	     -9.23114271	    -54.61650482	     10.58069020	     -0.20068850	      5.51123973	      5.80259415	      7.24585501	     -0.78479214	    -13.56670871	     10.09147363	     -5.63696256	      3.89961791	     -1.54273735	     -6.72512169	     -0.36364014
      1.58100000	     -2.89518384	      3.03827570	      1.58400251	      0.48660583	      0.91348479	      0.33536646	     25.37729574	     -5.74318735	     -9.39474199	    -53.41020792	     10.50614776	     -0.59461929	      5.23577840	      5.14637697	      7.15761504	     -0.46156835	    -13.06057816	     10.04322213	     -5.64189036	      3.96392325	     -1.66165062	     -6.61627679	     -0.76414668
      1.58516667	     -2.80801654	      2.91717227	      1.83329588	      0.49136878	      0.91395184	      0.33503106	     25.61238645	     -5.65356122	     -9.56476554	    -52.14552435	     10.37900236	     -0.96022004	      5.13183786	      4.49620798	      7.02815152	     -0.21958383	    -12.60138248	     10.07130465	     -5.54916231	      3.98879216	     -1.77978324	     -6.46012988	     -0.94931721
